<svg width="960" height="620" viewBox="0 0 960 620" fill="none" xmlns="http://www.w3.org/2000/svg">
  <defs>
    <linearGradient id="bg" x1="56" y1="40" x2="890" y2="590" gradientUnits="userSpaceOnUse">
      <stop stop-color="#FFF8FB"/>
      <stop offset="1" stop-color="#FCE7EE"/>
    </linearGradient>
    <linearGradient id="layer1" x1="170" y1="166" x2="790" y2="166" gradientUnits="userSpaceOnUse">
      <stop stop-color="#C11D49"/>
      <stop offset="1" stop-color="#8D1431"/>
    </linearGradient>
    <linearGradient id="layer2" x1="190" y1="258" x2="770" y2="258" gradientUnits="userSpaceOnUse">
      <stop stop-color="#F4D4DF"/>
      <stop offset="1" stop-color="#EFC2D1"/>
    </linearGradient>
    <linearGradient id="layer3" x1="210" y1="348" x2="750" y2="348" gradientUnits="userSpaceOnUse">
      <stop stop-color="#F8ECD8"/>
      <stop offset="1" stop-color="#DDBB87"/>
    </linearGradient>
    <linearGradient id="layer4" x1="236" y1="436" x2="724" y2="436" gradientUnits="userSpaceOnUse">
      <stop stop-color="#FFFFFF"/>
      <stop offset="1" stop-color="#FDEFF4"/>
    </linearGradient>
  </defs>

  <rect x="12" y="12" width="936" height="596" rx="34" fill="url(#bg)" stroke="#E6BAC8"/>
  <circle cx="176" cy="500" r="110" fill="#F7DCE5"/>
  <circle cx="806" cy="128" r="90" fill="#F5E3C7"/>

  <rect x="170" y="128" width="620" height="76" rx="20" fill="url(#layer1)"/>
  <text x="200" y="174" fill="#FFF3F7" font-size="28" font-family="Space Grotesk, Arial" font-weight="700">Experience Layer</text>

  <rect x="190" y="218" width="580" height="80" rx="20" fill="url(#layer2)" stroke="#DCA8B8"/>
  <text x="214" y="266" fill="#7A1A35" font-size="27" font-family="Space Grotesk, Arial" font-weight="700">AI Intelligence Layer</text>

  <rect x="210" y="310" width="540" height="78" rx="20" fill="url(#layer3)" stroke="#D3AE77"/>
  <text x="232" y="356" fill="#6F4A1B" font-size="26" font-family="Space Grotesk, Arial" font-weight="700">Core Service Layer</text>

  <rect x="236" y="398" width="488" height="76" rx="20" fill="url(#layer4)" stroke="#E5BAC7"/>
  <text x="256" y="444" fill="#851734" font-size="25" font-family="Space Grotesk, Arial" font-weight="700">Infrastructure Layer</text>

  <g>
    <circle cx="172" cy="166" r="12" fill="#F8ECD8"/>
    <circle cx="154" cy="166" r="6" fill="#FFE3EC"/>
    <circle cx="788" cy="166" r="12" fill="#F8ECD8"/>
    <circle cx="806" cy="166" r="6" fill="#FFE3EC"/>
  </g>

  <g>
    <path d="M305 506H657" stroke="#B45E74" stroke-width="10" stroke-linecap="round"/>
    <path d="M344 542H618" stroke="#C9AB75" stroke-width="10" stroke-linecap="round"/>
  </g>

  <text x="208" y="100" fill="#9F1237" font-size="22" font-family="Space Grotesk, Arial" font-weight="700">ADH Platform Blueprint</text>
</svg>
