<svg width="960" height="620" viewBox="0 0 960 620" fill="none" xmlns="http://www.w3.org/2000/svg">
  <defs>
    <linearGradient id="bg" x1="40" y1="44" x2="900" y2="570" gradientUnits="userSpaceOnUse">
      <stop stop-color="#FFF8FB"/>
      <stop offset="1" stop-color="#FCE8EF"/>
    </linearGradient>
    <linearGradient id="shield" x1="480" y1="156" x2="480" y2="458" gradientUnits="userSpaceOnUse">
      <stop stop-color="#C11D49"/>
      <stop offset="1" stop-color="#88122F"/>
    </linearGradient>
    <linearGradient id="panel" x1="190" y1="176" x2="312" y2="280" gradientUnits="userSpaceOnUse">
      <stop stop-color="#F8ECD8"/>
      <stop offset="1" stop-color="#DDBB87"/>
    </linearGradient>
  </defs>

  <rect x="12" y="12" width="936" height="596" rx="34" fill="url(#bg)" stroke="#E6BAC8"/>

  <rect x="94" y="164" width="220" height="124" rx="18" fill="url(#panel)" stroke="#D8B482"/>
  <text x="120" y="214" fill="#6F4A1B" font-size="24" font-family="Space Grotesk, Arial" font-weight="700">MFA</text>
  <text x="120" y="239" fill="#8B6433" font-size="16" font-family="General Sans, Arial">Adaptive access control</text>

  <rect x="646" y="164" width="220" height="124" rx="18" fill="url(#panel)" stroke="#D8B482"/>
  <text x="670" y="214" fill="#6F4A1B" font-size="24" font-family="Space Grotesk, Arial" font-weight="700">Audit</text>
  <text x="670" y="239" fill="#8B6433" font-size="16" font-family="General Sans, Arial">Immutable logs and trails</text>

  <rect x="94" y="332" width="220" height="124" rx="18" fill="url(#panel)" stroke="#D8B482"/>
  <text x="120" y="382" fill="#6F4A1B" font-size="24" font-family="Space Grotesk, Arial" font-weight="700">SSO</text>
  <text x="120" y="407" fill="#8B6433" font-size="16" font-family="General Sans, Arial">SAML and OAuth policies</text>

  <rect x="646" y="332" width="220" height="124" rx="18" fill="url(#panel)" stroke="#D8B482"/>
  <text x="670" y="382" fill="#6F4A1B" font-size="24" font-family="Space Grotesk, Arial" font-weight="700">DLP</text>
  <text x="670" y="407" fill="#8B6433" font-size="16" font-family="General Sans, Arial">Data loss protection mesh</text>

  <path d="M480 150L600 204V292C600 367 549 432 480 458C411 432 360 367 360 292V204L480 150Z" fill="url(#shield)"/>
  <path d="M480 185L567 224V288C567 344 531 393 480 418C429 393 393 344 393 288V224L480 185Z" fill="#FCEAF1" fill-opacity="0.95"/>
  <path d="M438 304L468 336L526 272" stroke="#9F1237" stroke-width="16" stroke-linecap="round" stroke-linejoin="round"/>

  <path d="M314 226H360" stroke="#B45E74" stroke-width="6" stroke-linecap="round"/>
  <path d="M600 226H646" stroke="#B45E74" stroke-width="6" stroke-linecap="round"/>
  <path d="M314 394H360" stroke="#B45E74" stroke-width="6" stroke-linecap="round"/>
  <path d="M600 394H646" stroke="#B45E74" stroke-width="6" stroke-linecap="round"/>

  <text x="270" y="104" fill="#9F1237" font-size="24" font-family="Space Grotesk, Arial" font-weight="700">ADH Security and Compliance Shield</text>
</svg>
